<svg width="512" height="512" xmlns="http://www.w3.org/2000/svg" preserveAspectRatio="xMidYMid meet">
 <metadata>Created by potrace 1.16, written by Peter Selinger 2001-2019</metadata>

 <g>
  <title>background</title>
  <rect fill="none" id="canvas_background" height="602" width="802" y="-1" x="-1"/>
 </g>
 <g>
  <title>Layer 1</title>
  <path id="svg_7" d="m350.82759,104.57759l-109.44828,153.35345l122.75862,153.7931l61.37931,-15.86207l-104.13793,-138.62069l82.75862,-130.34482l-53.31034,-22.31897z" stroke-opacity="null" stroke-width="null" stroke="null" fill="#58a4b0"/>
  <path id="svg_5" d="m199.10345,103.88793l-109.44828,153.35345l122.75862,153.7931l61.37931,-15.86207l-104.13793,-138.62069l82.75862,-130.34482l-53.31034,-22.31897z" stroke-opacity="null" stroke-width="null" stroke="null" fill="#58a4b0"/>
  <g transform="translate(0,512) scale(0.10000000149011612,-0.10000000149011612) " id="svg_1" fill="#050517">
   <path fill="#050517" id="svg_2" d="m2305,5112.58947c-109,-11 -310,-49 -420,-79c-999,-274 -1733,-1114 -1870,-2140c-20,-148 -20,-494 0,-655c117,-944 756,-1752 1649,-2084c274,-103 505,-146 816,-153c261,-6 390,4 603,47c985,200 1782,993 1985,1975c44,210 54,335 49,580c-5,242 -19,359 -64,550c-56,239 -174,527 -305,744c-133,219 -369,489 -573,653c-343,278 -747,461 -1186,538c-102,18 -171,22 -384,25c-143,2 -278,1 -300,-1zm-180,-1124c10,-11 34,-23 53,-26c19,-4 51,-21 71,-39c20,-18 53,-35 74,-39c20,-4 53,-21 72,-38l35,-31l-31,-56c-18,-31 -52,-78 -76,-105c-24,-27 -85,-110 -137,-185c-53,-77 -105,-143 -121,-151c-15,-8 -37,-35 -50,-60c-13,-25 -59,-93 -104,-153c-44,-59 -97,-137 -117,-175c-20,-37 -65,-110 -99,-163c-69,-105 -115,-190 -115,-213c0,-20 74,-116 204,-264c61,-70 137,-161 168,-202c31,-41 117,-145 190,-231c119,-139 219,-275 387,-521c34,-49 55,-91 58,-116l5,-39l-57,-27c-50,-23 -70,-26 -164,-26c-76,0 -114,-4 -136,-16c-55,-28 -100,0 -175,110c-26,40 -60,80 -73,89c-14,9 -65,69 -113,134c-102,139 -189,247 -258,323c-27,30 -86,111 -131,180c-117,178 -191,271 -395,497c-41,44 -46,75 -25,141c17,56 55,125 75,137c15,9 50,81 50,103c0,11 20,45 44,76c24,32 65,94 90,139c26,45 92,143 147,217c56,74 148,207 206,295c135,205 262,374 315,419c49,43 103,49 133,16zm1490,0c10,-11 34,-23 53,-26c19,-4 51,-21 71,-39c20,-18 52,-35 72,-39c20,-3 53,-21 73,-39l37,-32l-35,-58c-19,-32 -59,-86 -89,-120c-30,-34 -86,-109 -124,-167c-39,-58 -91,-123 -115,-146c-25,-22 -53,-56 -62,-75c-9,-19 -44,-70 -77,-114c-74,-97 -144,-203 -162,-247c-8,-18 -50,-88 -95,-156c-45,-67 -84,-138 -88,-157c-7,-41 10,-66 179,-260c56,-64 129,-152 162,-195c33,-43 121,-149 194,-235c125,-146 356,-458 431,-582c19,-31 33,-68 34,-89c1,-34 -2,-37 -54,-59c-46,-20 -72,-24 -158,-25c-69,0 -115,-5 -140,-15c-33,-14 -40,-14 -72,0c-22,10 -49,36 -70,68c-19,28 -65,83 -101,122c-36,38 -76,86 -89,105c-45,65 -221,288 -282,357c-33,37 -98,126 -144,196c-90,137 -203,284 -289,376c-110,116 -135,153 -135,193c0,41 38,128 78,181c49,65 62,89 62,120c0,14 16,43 38,68c21,24 61,84 88,132c26,49 93,148 148,220c54,73 146,204 204,292c132,202 256,368 316,423c37,34 53,42 84,42c26,0 45,-7 57,-20z"/>
  </g>
  <path id="svg_4" d="m202.55173,101.1293l-109.44828,156.80173" opacity="0.5" fill-opacity="null" stroke-opacity="null" stroke-width="null" stroke="null" fill="null"/>
 </g>
</svg>